<?xml version="1.0" encoding="UTF-8" standalone="no"?>
<svg
   xmlns:dc="http://purl.org/dc/elements/1.1/"
   xmlns:cc="http://creativecommons.org/ns#"
   xmlns:rdf="http://www.w3.org/1999/02/22-rdf-syntax-ns#"
   xmlns:svg="http://www.w3.org/2000/svg"
   xmlns="http://www.w3.org/2000/svg"
   xmlns:sodipodi="http://sodipodi.sourceforge.net/DTD/sodipodi-0.dtd"
   xmlns:inkscape="http://www.inkscape.org/namespaces/inkscape"
   width="24"
   height="24"
   preserveAspectRatio="xMinYMin meet"
   version="1.1"
   id="svg3729"
   sodipodi:docname="ansible_24px.svg"
   inkscape:version="0.92.2 (5c3e80d, 2017-08-06)">
  <metadata
     id="metadata3735">
    <rdf:RDF>
      <cc:Work
         rdf:about="">
        <dc:format>image/svg+xml</dc:format>
        <dc:type
           rdf:resource="http://purl.org/dc/dcmitype/StillImage" />
        <dc:title />
      </cc:Work>
    </rdf:RDF>
  </metadata>
  <defs
     id="defs3733" />
  <sodipodi:namedview
     pagecolor="#ffffff"
     bordercolor="#666666"
     borderopacity="1"
     objecttolerance="10"
     gridtolerance="10"
     guidetolerance="10"
     inkscape:pageopacity="0"
     inkscape:pageshadow="2"
     inkscape:window-width="3840"
     inkscape:window-height="2004"
     id="namedview3731"
     showgrid="false"
     inkscape:zoom="52.40625"
     inkscape:cx="18.423298"
     inkscape:cy="9.3596078"
     inkscape:window-x="-16"
     inkscape:window-y="-16"
     inkscape:window-maximized="1"
     inkscape:current-layer="g3727" />
  <g
     id="g3721"
     transform="matrix(0.09302326,0,0,0.09302326,0.09540521,0.12879818)">
    <title
       id="title3718">background</title>
    <rect
       x="-1"
       y="-1"
       width="258"
       height="258"
       id="canvas_background"
       style="fill:none" />
  </g>
  <g
     id="g3727"
     transform="matrix(0.09302326,0,0,0.09302326,0.09540521,0.12879818)">
    <title
       id="title3723">Layer 1</title>
    <path
       d="m 131.5355,56.78625 49.5165,122.214 -74.7945,-58.917 25.278,-63.2955 z m 87.966,150.369 -76.167,-183.3045 c -2.175,-5.286 -6.522,-8.085 -11.799,-8.085 -5.2875,0 -9.951,2.799 -12.126,8.085 l -83.598,201.06 H 64.409 l 33.093,-82.8975 98.76,79.785 c 3.9705,3.2115 6.837,4.665 10.5615,4.665 7.461,0 13.983,-5.595 13.983,-13.6665 0,-1.314 -0.465,-3.4005 -1.305,-5.643 z"
       id="svg_4"
       inkscape:connector-curvature="0"
       style="fill:#ffffff;stroke-width:1.5" />
  </g>
</svg>
